<?xml version="1.0" encoding="utf-8" ?>
<svg xmlns="http://www.w3.org/2000/svg" xmlns:xlink="http://www.w3.org/1999/xlink" width="744" height="744">
	<path fill="white" transform="scale(0.726562 0.726562)" d="M101.168 143.278Q104.242 143.072 107.323 143.052C126.244 142.799 145.246 143.664 164.17 143.857L294.015 145.171L625.159 147.435L824.737 148.503L890.655 148.492C902.154 148.489 914.307 147.696 925.716 148.964C938.906 150.43 951.759 156.991 961.172 166.287C975.424 180.361 979.331 198.634 979.445 217.992L978.91 598.152L978.445 707.482L978.423 742.001C978.415 749.9 978.786 758.347 977.598 766.167C976.405 774.02 971.237 782 965.693 787.518C960.633 792.554 954.107 796.333 947.084 797.752C934.095 800.375 919.845 798.376 906.621 798.319L822.75 798.087Q792.778 797.876 762.812 798.527C769.654 808.921 778.004 820.359 776.563 833.496C775.075 847.053 764.201 858.801 753.921 866.788C742.714 875.496 727.868 883.178 713.23 881.249C708.207 880.588 703.619 878.784 699.708 875.533C689.921 867.396 682.797 855.474 675.124 845.403L639.468 799.06C620.845 797.726 601.883 798.55 583.218 798.613L496.918 798.568L209.338 798.252L124.76 798.167C109.541 798.258 93.7469 799.865 78.624 798.029Q77.1709 797.857 75.7354 797.573Q74.2999 797.289 72.8905 796.896Q71.4812 796.502 70.1064 796.001Q68.7315 795.5 67.3994 794.895Q66.0673 794.289 64.7859 793.583Q63.5045 792.876 62.2813 792.073Q61.0581 791.27 59.9005 790.375Q58.7429 789.48 57.6578 788.498C46.9189 778.692 43.1437 768.468 42.6185 754.101C42.1089 740.164 43.3051 726.005 43.4441 712.043L44.3458 615.005L46.3837 399.75L47.4242 265.863L47.4737 221.561C47.4853 211.636 47.0943 201.486 48.1899 191.615C49.4645 180.131 53.8365 169.431 61.7947 160.953C72.4064 149.648 85.8002 143.836 101.168 143.278ZM127.094 300.26L124.045 604.75L123.317 696.441L123.239 731.555C123.237 737.168 123.517 742.875 123.238 748.469L452.684 751.297L549.554 751.503C568.083 751.508 586.649 751.75 605.173 751.423C590.008 731.808 577.717 709.843 563.667 689.426C511.349 709.074 460.925 712.121 409.091 688.673C360.959 666.899 324.037 624.675 305.764 575.49C287.732 526.951 291.615 471.495 313.192 424.744C334.998 377.497 374.445 342.606 423.07 324.743Q425.284 323.954 427.516 323.218Q429.748 322.483 431.997 321.801Q434.247 321.119 436.511 320.491Q438.776 319.863 441.056 319.29Q443.335 318.717 445.628 318.199Q447.92 317.681 450.224 317.218Q452.528 316.755 454.843 316.347Q457.158 315.94 459.482 315.588Q461.805 315.236 464.137 314.94Q466.469 314.644 468.807 314.405Q471.145 314.165 473.488 313.981Q475.831 313.798 478.178 313.67Q480.524 313.543 482.874 313.472Q485.223 313.401 487.573 313.387Q489.923 313.372 492.273 313.414Q494.623 313.456 496.971 313.555Q499.319 313.653 501.665 313.808Q504.01 313.963 506.351 314.174Q508.691 314.385 511.026 314.652Q513.361 314.919 515.689 315.243Q518.017 315.566 520.337 315.945Q522.656 316.324 524.966 316.758Q527.276 317.193 529.575 317.683Q531.873 318.173 534.159 318.718Q536.446 319.263 538.718 319.863Q540.99 320.463 543.248 321.117Q545.505 321.771 547.746 322.479Q549.987 323.188 552.211 323.949Q554.434 324.711 556.638 325.526Q558.843 326.341 561.027 327.209Q563.211 328.077 565.374 328.996Q567.537 329.916 569.677 330.888C580.597 335.954 590.848 342.199 600.713 349.079C643.478 381.014 672.877 425.71 680.687 479.015Q681.045 481.409 681.343 483.812Q681.642 486.214 681.882 488.623Q682.122 491.032 682.303 493.446Q682.484 495.86 682.606 498.278Q682.727 500.696 682.79 503.116Q682.853 505.536 682.856 507.957Q682.859 510.378 682.804 512.798Q682.748 515.219 682.633 517.637Q682.518 520.055 682.343 522.469Q682.169 524.884 681.936 527.294Q681.703 529.703 681.411 532.107Q681.119 534.51 680.768 536.905Q680.417 539.3 680.008 541.687Q679.599 544.073 679.131 546.448Q678.664 548.823 678.138 551.186Q677.613 553.55 677.029 555.899Q676.446 558.249 675.806 560.583Q675.165 562.918 674.468 565.236Q673.771 567.555 673.017 569.855Q672.263 572.156 671.453 574.437Q670.643 576.718 669.777 578.979Q668.912 581.24 667.991 583.479Q667.071 585.718 666.096 587.934Q665.121 590.15 664.092 592.341Q663.063 594.532 661.98 596.698Q660.898 598.863 659.763 601.002Q658.628 603.14 657.441 605.25Q656.254 607.36 655.016 609.44Q653.778 611.521 652.489 613.57Q651.2 615.619 649.862 617.637Q648.523 619.654 647.136 621.638Q645.749 623.622 644.313 625.571C639.139 632.516 633.509 639.761 627.466 645.95Q630.847 650.727 634.344 655.419C636.28 654.387 638.191 653.344 640.213 652.486L703.642 724.786C711.931 734.401 720.842 743.898 728.479 754.027L857.436 754.009C873.125 753.982 888.873 754.219 904.554 753.886C905.242 732.463 904.685 710.93 904.478 689.5L903.609 596.102L901.56 302.018C873.692 301.079 845.78 301.512 817.899 301.542L688.94 301.633L313.979 301.037L199.204 300.638C175.12 300.622 151.177 301.378 127.094 300.26ZM58.5954 262.74C57.1035 287.619 58.2533 312.821 57.8662 337.751L55.8686 532.872Q54.4261 615.207 54.376 697.555L54.1029 736.728C54.0543 743.99 53.7118 751.447 54.3795 758.677C55.0392 765.821 57.5462 772.009 62.3579 777.395C67.8804 783.576 75.8364 786.52 83.9635 786.906C92.3797 787.306 100.921 787.028 109.35 787.023L154.702 787L293.974 786.999L504.417 786.683C546.16 786.71 587.99 787.52 629.723 786.874Q622.376 774.733 613.808 763.42Q452.655 763.285 291.514 761.085L181.911 760.041L139 759.609C132.274 759.549 125.222 760.043 118.536 759.486C116.673 759.331 114.987 758.769 113.651 757.425C111.096 754.858 111.799 744.417 111.887 740.764Q113.064 673.184 113.033 605.593L114.906 434.365L115.461 342.579L115.523 310.894C115.528 306.384 115.101 301.637 115.45 297.166C115.634 294.807 116.064 292.281 117.915 290.628C119.715 289.022 127.154 289.295 129.627 289.243C145.868 288.906 162.219 289.454 178.476 289.488L287.214 289.699L624.75 290.517L828.581 290.522L880.571 290.504C890.222 290.499 900.996 289.438 910.433 291.365C912.698 294.134 912.763 301.737 912.834 305.248C913.526 339.601 912.933 374.062 913.049 408.428L914.345 594.831Q914.999 651.192 915.051 707.557C915.107 719.416 915.407 731.269 915.401 743.129C915.397 748.694 915.654 754.473 915.084 760.005Q914.888 761.843 914.529 763.657C895.891 766.276 876.798 764.586 858.034 764.55C818.03 764.473 777.748 763.647 737.769 765.017L754.77 787.942L889.191 787.907L921.762 788.101C929.015 788.175 937.149 788.965 944.274 787.604C949.683 786.57 954.907 783.193 958.781 779.366C963.556 774.649 966.354 769.045 967.122 762.348C967.888 755.66 967.617 748.768 967.616 742.042L967.645 711.786L967.974 605.07L968.936 282.986Q968.956 273.51 968.811 264.036Q880.344 263.087 791.872 263.396L462.659 263.372L191.501 262.97C147.232 262.898 102.849 261.727 58.5954 262.74ZM97.8734 154.682C86.0289 156.416 75.6278 161.562 68.3721 171.291Q66.8437 173.358 65.5429 175.575Q64.242 177.791 63.1833 180.134Q62.1247 182.476 61.3201 184.917Q60.5155 187.358 59.974 189.871C57.5949 200.636 58.2801 212.228 58.295 223.206C58.3079 232.681 58.1881 242.188 58.4984 251.658L929.375 252.483L968.43 252.549L968.537 226.228C968.571 207.417 968.036 189.447 953.905 175.285C945.649 167.01 934.216 161.141 922.557 159.793C912.923 158.679 902.516 159.428 892.78 159.434L838 159.324L645.983 158.473L290.852 155.894L159.617 154.921Q132.592 154.506 105.565 154.431C103.025 154.443 100.391 154.373 97.8734 154.682ZM485.4 367.716C446.803 369.918 409.913 384.941 383.809 414.159C359.934 440.884 346.521 477.181 348.671 513.099C351.086 553.467 368.527 589.841 398.931 616.615Q400.14 617.673 401.373 618.703Q402.606 619.733 403.863 620.733Q405.12 621.734 406.4 622.704Q407.68 623.675 408.982 624.615Q410.285 625.556 411.609 626.465Q412.933 627.375 414.278 628.253Q415.624 629.131 416.989 629.978Q418.354 630.824 419.739 631.638Q421.124 632.452 422.528 633.234Q423.931 634.015 425.353 634.763Q426.775 635.511 428.213 636.226Q429.652 636.941 431.107 637.621Q432.562 638.302 434.033 638.948Q435.504 639.595 436.989 640.206Q438.475 640.818 439.974 641.395Q441.474 641.971 442.986 642.513Q444.499 643.054 446.024 643.559Q447.549 644.065 449.085 644.535Q450.621 645.004 452.168 645.438Q453.715 645.871 455.271 646.268Q456.828 646.665 458.394 647.026Q459.959 647.386 461.533 647.71Q463.106 648.033 464.687 648.32Q466.268 648.606 467.855 648.856Q469.442 649.105 471.034 649.317Q472.626 649.529 474.223 649.704Q475.82 649.879 477.421 650.016Q479.022 650.153 480.625 650.252Q482.228 650.352 483.834 650.414Q485.439 650.475 487.045 650.499Q488.652 650.524 490.258 650.51Q491.864 650.496 493.47 650.445C522.07 648.448 544.629 641.575 568.303 625.05C576.983 618.992 585.099 612.275 592.076 604.28C617.609 575.028 631.509 534.905 628.847 496.133C626.365 459.995 609.605 423.98 582.009 400.27C555.999 377.923 519.607 365.833 485.4 367.716ZM619.602 653.96C614.09 657.97 608.919 662.419 603.387 666.411C593.997 673.187 584.191 678.955 574.029 684.481C575.956 688.238 578.115 691.773 580.383 695.331C595.281 684.493 610.885 674.182 625.279 662.702C624.272 660.845 621.6 654.64 619.602 653.96ZM531.633 340.831C530.813 342.222 529.959 343.349 530.061 345.033C532.633 349.365 544.879 352.036 549.59 353.87Q554.973 356.004 560.162 358.574C567.971 362.436 575.193 367.736 583.148 371.196C583.956 369.897 584.898 368.79 584.709 367.187C578.653 356.865 547.87 344.792 535.367 341.577C534.129 341.258 532.897 341.02 531.633 340.831ZM624.102 402.487L619.144 405.986C624.81 413.644 629.858 422.107 634.208 430.584C637.625 437.243 640.506 444.486 644.99 450.515C646.396 449.633 647.794 448.994 648.467 447.393C648.965 439.068 631.104 410.195 625.206 403.434C624.508 402.633 624.844 402.886 624.102 402.487ZM596.452 373.765C595.494 374.968 594.087 376.363 594.263 378.015C594.796 383.031 602.173 386.931 605.752 390.044C607.239 391.337 608.61 393.065 610.172 394.219C610.777 394.666 610.882 394.693 611.466 394.982L612.015 394.689L615.616 391.114C610.275 385.028 603.842 377.384 596.452 373.765ZM499.206 335.182L497.798 335.784C497.312 337.026 497.183 337.33 497.824 338.626C498.976 340.958 502.346 341.776 504.646 342.13C508.493 342.721 512.57 342.765 516.456 343.029C517.281 342.248 517.846 341.423 517.825 340.208C517.806 339.052 517.509 338.049 516.581 337.3C513.174 334.553 503.404 335.184 499.206 335.182Z"/>
	<path fill="white" transform="scale(0.726562 0.726562)" d="M478.455 393.794C478.638 393.773 478.82 393.75 479.002 393.733C508.162 391.091 553.597 397.639 576.065 416.731C580.975 420.903 584.506 426.255 584.968 432.791C585.777 444.238 585.347 455.846 585.301 467.318L585.257 520.503Q585.35 541.369 585.779 562.231C585.922 571.042 586.415 580.138 585.653 588.91C585.399 591.83 584.696 594.659 582.656 596.863C568.307 612.367 525.715 616.608 504.856 617.95C475.948 618.525 446.18 616.979 418.439 608.167C412.541 606.294 405.809 604.069 400.996 600.015C397.886 597.394 397.043 594.15 396.697 590.228C395.466 576.315 396.197 562.29 396.409 548.35Q396.583 525.707 396.478 503.063L396.34 460.462C396.246 450.844 395.297 440.394 396.788 430.867C397.372 427.136 399.019 424.301 401.434 421.468C419.035 400.818 452.75 395.89 478.455 393.794ZM490.051 404.732C468.781 405.41 427.24 409.998 412.877 425.95C410.809 428.247 409.313 431.176 409.55 434.338C409.797 437.649 411.958 440.243 414.416 442.281C431.767 456.668 469.528 461.219 491.875 460.978C512.81 460.58 554.757 455.598 569.325 440.653C571.242 438.686 572.707 436.165 572.665 433.351C572.617 430.079 570.713 427.367 568.361 425.249C551.521 410.083 512.804 403.405 490.051 404.732ZM408.082 525.77C407.729 537.661 407.156 550.205 408.101 562.049C414.463 567.313 423.019 569.161 430.91 570.964C459.526 577.5 489.519 578.507 518.692 575.796C530.703 574.68 565.688 569.435 574.164 561.832C574.529 560.673 574.535 559.822 574.515 558.625C574.585 548.115 575.702 536.254 573.926 525.918C565.691 530.293 557.447 534.118 548.518 536.914C514.099 547.689 468.839 548.352 434.325 537.711Q427.42 535.55 420.834 532.553Q414.248 529.556 408.082 525.77ZM408.136 451.837C407.51 456.877 405.889 479.141 408.721 482.577C410.996 485.339 415.49 486.843 418.705 488.197C436.872 495.852 456.571 498.799 476.15 499.754C506.738 501.244 547.377 498.275 574.222 482.461C574.678 481.716 574.833 481.788 574.669 480.879C574.879 471.027 575.098 461.312 574.308 451.48C565.802 456.282 557.426 460.448 548.107 463.521C516.403 473.976 472.718 475.049 440.673 466.138Q436.389 464.907 432.197 463.391Q428.005 461.875 423.924 460.081Q419.843 458.287 415.892 456.224Q411.94 454.161 408.136 451.837ZM573.85 495.503C530.14 515.475 461.909 516.56 417.062 499.706C414.113 498.598 411.158 497.395 408.317 496.03C408.064 500.977 408.029 505.888 408.06 510.839C409.406 512.181 410.719 513.625 412.256 514.749C445.554 536.155 494.516 537.594 532.516 529.211C546.864 526.046 562.188 520.315 574.338 511.992C574.486 508.71 575.789 497.993 574.017 495.644C573.973 495.586 573.906 495.55 573.85 495.503ZM573.913 575.072C562.844 579.414 551.781 582.477 540.068 584.477C503.798 590.669 442.276 590.581 408.249 575.983L407.817 575.793C407.436 579.884 405.854 587.81 408.766 591.16C409.35 591.832 410.067 592.411 410.777 592.944C452.139 610.473 520.929 612.281 563.119 595.351C567.147 593.735 571.04 591.855 574.932 589.941C574.989 585.969 575.93 578.833 574.251 575.313L573.913 575.072Z"/>
	<path fill="white" transform="scale(0.726562 0.726562)" d="M126.614 185.565C131.398 185.352 135.938 186.048 140.003 188.771C144.089 191.509 146.745 195.75 147.688 200.555C148.715 205.791 147.806 211.569 144.727 215.985C141.658 220.387 137.3 222.52 132.126 223.387C127.968 223.547 124.247 223.343 120.465 221.34Q120.04 221.111 119.628 220.861Q119.215 220.611 118.816 220.341Q118.417 220.07 118.032 219.779Q117.647 219.489 117.277 219.179Q116.907 218.87 116.553 218.541Q116.2 218.213 115.863 217.868Q115.527 217.522 115.208 217.16Q114.89 216.798 114.59 216.42Q114.29 216.042 114.01 215.649Q113.73 215.256 113.47 214.85Q113.21 214.444 112.972 214.024Q112.733 213.605 112.515 213.175Q112.298 212.744 112.103 212.303Q111.908 211.862 111.735 211.411Q111.563 210.961 111.413 210.502Q111.264 210.044 111.138 209.578C109.751 204.524 110.407 198.92 113.127 194.417C116.27 189.214 120.93 186.929 126.614 185.565Z"/>
	<path fill="white" transform="scale(0.726562 0.726562)" d="M233.257 186.045C236.926 185.801 240.429 185.786 243.916 187.128C248.584 188.926 252.148 192.583 254.115 197.152C256.226 202.055 256.464 207.775 254.456 212.751C252.037 218.745 247.46 221.662 241.821 224.147C237.053 224.936 232.332 224.621 228.065 222.165Q227.64 221.916 227.227 221.647Q226.815 221.377 226.416 221.088Q226.017 220.798 225.633 220.489Q225.249 220.18 224.881 219.853Q224.512 219.525 224.161 219.18Q223.809 218.835 223.475 218.473Q223.141 218.111 222.825 217.733Q222.509 217.354 222.212 216.961Q221.915 216.568 221.638 216.16Q221.361 215.753 221.104 215.332Q220.847 214.911 220.612 214.479Q220.376 214.046 220.162 213.602Q219.948 213.158 219.756 212.704Q219.564 212.25 219.395 211.787Q219.226 211.325 219.08 210.854Q218.934 210.383 218.811 209.906C217.485 204.814 218.034 198.893 220.754 194.333C223.703 189.388 227.972 187.504 233.257 186.045Z"/>
	<path fill="white" transform="scale(0.726562 0.726562)" d="M182.65 185.745C186.53 185.864 190.169 186.642 193.452 188.809C197.894 191.74 200.686 196.573 201.625 201.755Q201.718 202.24 201.786 202.73Q201.854 203.219 201.897 203.711Q201.94 204.203 201.959 204.697Q201.977 205.191 201.97 205.685Q201.963 206.179 201.932 206.672Q201.9 207.165 201.843 207.656Q201.786 208.147 201.705 208.634Q201.623 209.122 201.517 209.604Q201.411 210.087 201.281 210.563Q201.151 211.04 200.996 211.509Q200.842 211.979 200.664 212.44Q200.486 212.901 200.285 213.352Q200.084 213.803 199.861 214.244Q199.637 214.684 199.391 215.113Q199.146 215.542 198.879 215.958Q198.612 216.373 198.324 216.775C194.874 221.512 190.193 223.607 184.597 224.586C179.62 224.52 175.261 223.354 171.334 220.161Q170.946 219.85 170.573 219.521Q170.201 219.191 169.845 218.843Q169.49 218.495 169.153 218.129Q168.815 217.764 168.497 217.382Q168.178 217 167.88 216.602Q167.581 216.205 167.302 215.793Q167.023 215.381 166.766 214.955Q166.509 214.53 166.273 214.092Q166.037 213.654 165.824 213.205Q165.61 212.755 165.42 212.296Q165.229 211.837 165.062 211.368Q164.895 210.9 164.751 210.423Q164.608 209.947 164.489 209.464Q164.369 208.982 164.275 208.493Q164.18 208.005 164.109 207.513Q164.039 207.02 163.994 206.525C163.541 201.327 165.189 195.943 168.652 192.014C172.356 187.812 177.168 185.987 182.65 185.745Z"/>
	<path fill="white" transform="scale(0.726562 0.726562)" d="M875.716 176.75Q879.433 176.622 883.152 176.565C899.856 176.315 914.376 179.847 926.615 191.845C933.149 198.251 938.241 206.501 938.22 215.915C938.206 222.326 935.174 228.115 930.608 232.513C923.851 239.02 914.933 241.706 905.788 242.545C897.374 243.316 888.867 242.934 880.43 242.827Q863.593 242.588 846.755 242.567Q783.261 242.675 719.769 242.106L447.482 240.633C413.452 240.409 379.4 240.856 345.375 240.29C326.373 239.911 305.809 240.645 290.723 227.11C284.586 221.604 279.857 214.263 279.548 205.804C279.316 199.491 281.671 193.623 286.026 189.074C291.774 183.071 299.929 179.662 308.086 178.67C316.021 177.706 324.141 177.978 332.121 177.955L367.216 177.88L477.43 177.622L707.637 177.482Q791.679 177.742 875.716 176.75ZM864.314 187.739C817.339 188.554 770.281 188.014 723.296 188.082L479.961 188.538L370.484 188.976L334.974 189.011C327.603 189.005 320.065 188.707 312.72 189.357C306.237 189.93 299.992 191.123 295.207 195.951C292.371 198.813 290.942 201.95 289.574 205.67C293.101 214.895 298.784 220.764 307.784 224.792C321.828 231.078 342.181 229.241 357.625 229.428L737.832 231.044L841.786 231.655Q861.665 231.953 881.546 231.964C888.468 231.979 895.57 232.312 902.467 231.739C909.655 231.142 918.184 229.305 923.524 224.082C925.823 221.834 927.21 219.013 927.219 215.766C927.237 209.647 922.84 204.203 918.605 200.19C903.042 185.441 884.183 187.426 864.314 187.739Z"/>
</svg>
