<svg version="1.0" xmlns="http://www.w3.org/2000/svg" preserveAspectRatio="xMidYMid meet" viewBox="0 0 1152 864">

<g transform="translate(0.000000,864.000000) scale(0.100000,-0.100000)" fill="#000000" stroke="none">
<path d="M0 4320 l0 -4320 5760 0 5760 0 0 4320 0 4320 -5760 0 -5760 0 0 -4320z m6070 2419 c215 -36 408 -98 595 -191 346 -173 643 -444 833 -760 156 -259 250 -515 299 -819 23 -144 23 -438 -1 -574 -43 -242 -110 -444 -201 -605 -19 -34 -35 -66 -35 -70 0 -5 78 -84 172 -177 247 -240 328 -325 328 -344 0 -19 -28 -57 -84 -116 -32 -34 -47 -43 -74 -43 -32 0 -67 33 -474 440 l-440 440 46 72 c83 135 171 367 196 521 15 94 12 322 -5 423 -34 191 -123 409 -239 579 -75 110 -273 312 -376 382 -260 177 -489 250 -815 260 -301 9 -500 -34 -755 -163 -635 -322 -949 -1035 -743 -1688 24 -76 105 -252 138 -299 30 -43 10 -83 -66 -131 -26 -16 -28 -16 -55 8 -63 52 -174 308 -221 506 -30 129 -42 386 -24 524 37 277 175 586 366 822 181 223 468 423 741 517 353 122 776 123 1125 1 242 -84 407 -191 610 -393 252 -253 380 -477 466 -816 34 -138 44 -418 19 -577 -27 -170 -110 -406 -176 -498 l-21 -29 107 -103 c58 -57 110 -104 114 -106 10 -4 82 117 117 196 123 279 185 616 163 884 -61 712 -468 1329 -1075 1631 -200 99 -339 143 -594 186 -148 25 -399 28 -561 7 -428 -57 -850 -271 -1152 -585 -122 -126 -187 -211 -278 -361 -81 -133 -121 -221 -171 -370 -86 -256 -121 -530 -101 -770 23 -271 83 -494 187 -701 89 -176 181 -305 329 -457 45 -46 82 -89 84 -97 6 -25 -43 -65 -69 -58 -33 9 -202 181 -281 287 -36 48 -93 137 -127 196 -323 570 -327 1331 -10 1928 148 279 357 518 634 725 294 219 650 352 1035 387 138 12 376 3 520 -21z m-202 -1444 c183 -43 334 -180 403 -365 27 -73 32 -99 33 -180 1 -114 -14 -180 -62 -279 -68 -140 -225 -266 -373 -300 -65 -15 -197 -13 -264 4 -147 39 -302 167 -368 306 -49 103 -60 150 -60 254 0 244 132 441 358 538 91 39 225 47 333 22z m981 -111 c29 -36 76 -165 95 -258 24 -116 21 -301 -5 -407 -27 -107 -71 -205 -111 -246 -34 -35 -39 -34 -126 9 -63 32 -69 43 -43 79 56 76 101 239 101 370 0 92 -29 227 -71 327 -19 46 -20 55 -8 67 17 17 130 85 140 85 4 0 17 -12 28 -26z m-2108 -24 c38 -22 70 -44 73 -49 3 -4 -8 -41 -24 -82 -58 -150 -74 -299 -46 -430 17 -77 60 -192 88 -232 11 -15 18 -34 15 -41 -7 -17 -114 -76 -138 -76 -40 0 -104 111 -150 260 -21 65 -24 95 -24 230 0 169 14 252 61 357 32 73 51 103 66 103 7 0 42 -18 79 -40z m1889 -2299 c507 -36 907 -104 1059 -180 172 -88 175 -163 7 -242 -224 -104 -621 -167 -1286 -204 -455 -25 -1177 -18 -1600 15 -547 44 -968 125 -1112 216 -114 73 -104 128 39 202 43 22 110 49 148 61 213 62 683 119 1175 141 255 11 1371 5 1570 -9z"/>
<path d="M4312 2616 c-107 -52 -97 -71 53 -101 339 -68 1124 -100 1855 -75 346 12 506 24 757 55 288 37 334 64 206 125 -49 23 -76 30 -98 26 -440 -86 -1648 -109 -2380 -46 -116 10 -277 34 -306 45 -8 3 -47 -10 -87 -29z"/>
</g>
</svg>